<svg width="35" height="31" viewBox="0 0 35 31" fill="none" xmlns="http://www.w3.org/2000/svg">
<g clip-path="url(#clip0_261_4)">
<path d="M30.3574 8.06785L25.3459 3.07339C24.7916 2.52037 23.8788 2.51898 23.3082 3.06493L20.7188 5.54593L24.4783 9.29504C24.6174 9.43547 24.613 9.65462 24.4709 9.79328L23.9528 10.2886C23.8108 10.4273 23.5812 10.4261 23.442 10.2857L19.6837 6.54094L17.6124 8.5266L19.3679 10.2731C19.507 10.4136 19.5026 10.6327 19.3605 10.7714L18.8424 11.2667C18.7004 11.4054 18.4708 11.4042 18.3316 11.2638L16.5773 9.52161L14.5059 11.5073L18.2698 15.2553C18.4078 15.3913 18.4046 15.6148 18.2625 15.7535L17.7444 16.2488C17.6023 16.3875 17.3727 16.3863 17.2336 16.2459L13.4741 12.4968L11.4028 14.4825L13.1583 16.229C13.2974 16.3694 13.2931 16.5886 13.151 16.7272L12.6329 17.2226C12.4908 17.3612 12.2612 17.3601 12.1221 17.2196L10.3654 15.4688L8.29412 17.4544L12.0536 21.2036C12.1916 21.3396 12.1884 21.5631 12.0463 21.7018L11.5282 22.1971C11.3861 22.3358 11.1565 22.3346 11.0174 22.1942L7.26126 18.4582L4.67183 20.9391C4.10237 21.4895 4.08389 22.3802 4.63816 22.9333L9.65081 27.9321C10.2051 28.4851 11.1179 28.4865 11.6885 27.9405L30.3281 10.0608C30.8987 9.51489 30.9117 8.62088 30.3574 8.06785Z" fill="black"/>
</g>
<defs>
<clipPath id="clip0_261_4">
<rect width="29" height="23" fill="white" transform="translate(0.589233 7.98157) rotate(-14.4484)"/>
</clipPath>
</defs>
</svg>
