<svg width="226" height="353" viewBox="0 0 226 353" fill="none" xmlns="http://www.w3.org/2000/svg">
<g clip-path="url(#clip0_310_55)">
<path d="M70.2428 207.632C69.8811 212.632 72.9093 217.77 74.6531 222.322C76.4904 227.114 78.3886 231.878 80.2828 236.646C80.673 237.883 81.0632 239.117 81.4494 240.355C81.5022 240.591 81.555 240.827 81.6079 241.063C81.994 242.533 82.3802 244.003 82.7623 245.477C82.9818 248.461 83.6362 251.352 84.2174 254.287C84.2622 254.597 84.3069 254.906 84.3516 255.216L84.4491 255.912C84.506 256.071 84.5589 256.229 84.6158 256.388C84.8475 257.935 85.0792 259.483 85.3109 261.03C85.3068 261.339 85.3068 261.649 85.3027 261.954C85.3759 262.19 85.4491 262.426 85.5222 262.658C85.5222 262.809 85.5182 262.96 85.5182 263.11C85.7499 264.043 85.9856 264.975 86.2173 265.907C86.2214 266.217 86.2295 266.522 86.2336 266.832C86.1685 267.381 86.262 268.024 86.0141 268.468C84.7581 270.712 84.628 273.187 84.4085 275.646C84.3597 276.11 84.3109 276.575 84.2622 277.039C84.2622 277.812 84.2622 278.59 84.2622 279.364C84.3109 280.133 84.3638 280.907 84.4126 281.676C84.5589 284.567 85.0426 287.645 84.754 290.527C84.506 292.995 83.624 294.925 84.4329 297.425C85.1117 299.525 86.3027 300.873 87.9936 302.652C89.3146 304.041 91.469 305.999 94.6557 307.733C101.684 310.25 108.821 311.365 116.211 309.904C123.235 308.515 130.096 305.36 136.827 302.95C138.075 302.587 139.327 302.229 140.575 301.866C140.726 301.423 140.941 300.987 141.266 300.572C142.197 299.379 143.461 298.597 144.315 297.282C146.172 294.428 146.502 291.053 146.473 287.73C146.457 286.004 146.384 284.323 146.705 282.613C147.046 280.801 147.892 279.07 147.928 277.202C148.006 273.606 145.648 270.011 144.282 266.791C145.461 265.765 146.997 264.425 148.534 263.09C148.77 262.874 149.005 262.654 149.245 262.438C152.834 259.454 155.322 256.067 157.001 251.706C158.891 246.792 161.171 242.101 163.423 237.346C163.48 237.269 163.537 237.195 163.594 237.118C163.996 236.267 164.403 235.416 164.805 234.565C164.862 234.48 164.915 234.394 164.972 234.305C168.24 229.736 171.223 225.559 175.422 221.805C179.808 217.888 184.157 213.943 188.474 209.949C188.588 209.79 188.702 209.632 188.816 209.473C190.584 206.008 190.856 203.545 188.527 200.104C186.694 197.393 183.714 195.996 180.568 195.491C172.971 194.27 166.264 197.714 161.057 203.072C158.224 205.988 156.253 209.55 153.355 212.437C151.9 213.886 150.396 215.291 148.875 216.675C147.68 217.766 145.746 220.307 144.112 220.6C139.405 221.439 140.352 202.258 140.433 199.31C139.994 195.19 140.222 191.082 139.978 186.962C139.722 182.613 138.604 178.391 138.169 174.067C137.323 165.688 137.315 156.988 134.665 148.922C134.096 147.615 133.531 146.308 132.962 145.001C132.649 144.325 132.336 143.645 131.86 142.623C129.247 139.916 126.755 136.598 122.597 136.919C119.552 137.155 116.536 138.951 115.248 141.777C113.597 145.388 114.817 150.404 115.105 154.199C115.475 159.044 116.126 163.856 116.65 168.689C116.459 168.046 114.992 163.38 110.268 161.486C109.394 161.136 106.602 160.155 103.505 161.169C99.5253 162.472 96.6678 166.539 96.2572 171.441C96.1028 172.072 95.9483 172.707 95.7938 173.339C91.8754 173.937 88.7618 175.085 86.5506 176.103C84.0061 177.276 81.6038 178.383 79.3682 180.757C78.4333 181.746 77.0716 183.134 74.8035 189.327C73.5312 192.8 72.2427 196.253 71.0842 199.766C71.1899 199.783 71.2915 199.799 71.3972 199.815C71.0477 201.574 70.7428 203.321 70.4867 205.096C70.4867 205.247 70.4867 205.401 70.4867 205.552C70.4014 206.098 70.3201 206.643 70.2347 207.189C70.2347 207.331 70.2388 207.482 70.2428 207.632ZM143.368 285.666C142.693 290.906 142.904 296.647 137.592 299.249C132.06 301.956 125.58 304.085 119.715 305.942C116.792 306.866 113.569 307.098 110.537 307.424C108.777 307.615 107.013 307.685 105.248 307.51C104.009 307.387 102.769 306.891 101.554 307.151C96.684 305.168 92.6721 303.76 89.0789 299.757C85.7214 296.02 87.5302 289.408 87.7985 284.754C87.7456 284.717 87.6887 284.681 87.6359 284.644V273.761C91.03 276.416 93.1843 279.347 97.6189 280.475C102.659 281.758 108.082 281.562 113.207 281.008C118.341 280.459 123.426 279.022 128.206 277.092C133.003 275.154 136.88 271.807 141.457 269.506C146.241 273.529 144.063 280.288 143.368 285.666ZM168.512 201.098C172.772 198.354 179.487 196.749 183.983 199.986C185.609 201.155 187.592 203.671 187.133 205.808C186.629 208.162 183.434 210.34 181.788 211.899C177.686 215.788 173.118 220.905 167.923 223.173C165.252 217.583 163.919 216.887 157.176 212.889C159.96 208.129 163.887 204.082 168.512 201.098ZM123.45 140.645C127.946 141.516 130.117 146.723 131.486 150.579C133.348 155.827 133.417 161.405 133.881 166.893C134.332 172.211 135.466 177.341 136.258 182.601C137.063 187.931 136.596 193.435 137.458 198.692C131.706 196.098 126.044 194.364 119.877 195.825C117.365 191.974 119.609 185.321 119.593 181.009C119.577 175.708 119.455 170.399 119.243 165.102C119.028 159.683 118.032 154.374 117.678 148.975C117.459 145.591 118.91 139.765 123.45 140.645ZM100.314 165.802C103.245 162.244 110.943 163.03 112.37 165.599C112.508 165.847 112.76 166.747 113.26 168.55C113.427 169.141 113.691 170.11 113.996 171.384C113.996 171.384 114.455 173.424 114.833 175.386C115.951 181.196 117.203 186.078 115.528 191.908C110.659 190.215 105.858 190.944 101.001 191.835C100.846 187.442 100.472 183.928 100.159 181.547C99.7854 178.684 99.5294 177.662 99.379 175.272C99.0578 170.11 98.8912 167.529 100.314 165.802ZM87.4245 185.284C87.5302 183.338 87.4164 181.103 88.2741 179.303C89.778 176.152 93.7086 176.502 96.6759 176.274C97.184 181.88 97.6596 187.112 98.1229 192.21C94.3671 192.755 90.8674 193.264 86.9733 193.83C87.1278 190.984 87.2741 188.134 87.4245 185.284ZM87.8351 211.468C87.4408 209.057 87.1441 206.643 86.8799 204.217C86.6888 202.454 85.9124 199.595 86.888 197.951C89.087 194.25 95.0825 195.145 98.1026 196.68C97.8587 200.19 97.6271 203.467 97.3954 206.818C97.7083 207.03 98.0173 207.242 98.6595 207.677C100.716 204.013 98.6148 197.629 102.102 194.889C105.24 192.421 112.829 193.248 115.996 195.333C115.996 198.639 115.922 201.928 115.78 205.23C115.658 208.129 115.321 210.014 116.935 212.449C117.146 212.404 117.353 212.359 117.565 212.315C118.105 209.851 118.361 207.885 118.284 205.332C118.211 202.804 118.926 200.585 119.495 198.146C123.8 198.146 127.926 198.016 132.112 199.192C133.616 199.616 136.165 200.157 137.197 201.485C138.165 202.722 137.823 204.709 137.815 206.163C137.783 210.462 137.884 214.383 139.364 218.467C139.917 219.998 142.616 230.62 145.27 227.44C145.132 225.571 143.047 225.062 144.567 223.21C145.221 222.412 146.567 222.107 147.42 221.553C148.733 220.698 149.794 219.578 150.843 218.43C152.355 216.773 153.428 214.717 155.903 215.433C158.537 216.199 161.057 218.707 162.809 220.726C164.269 222.412 166.72 224.895 166.102 227.249C165.33 230.192 162.521 233.319 161.053 235.994C157.806 241.91 155.781 248.412 152.526 254.332C149.428 259.967 143.697 263.831 138.864 267.91C133.779 272.206 128.69 274.156 122.528 276.444C115.837 278.924 108.659 279.852 101.554 278.688C98.9806 278.264 95.5053 277.242 93.2656 275.878C90.465 274.172 90.1479 270.406 89.4894 267.511C87.6765 259.535 86.3027 251.478 84.6117 243.474C83.8069 239.667 82.8923 235.958 81.4494 232.338C80.1161 228.995 78.1488 225.706 77.2952 222.208C75.6368 219.713 72.5597 214.656 74.0474 211.655C75.7262 208.276 81.1973 206.134 84.5833 205.3C84.8719 207.445 84.5345 212.03 87.8351 211.468ZM84.1931 181.217C84.1931 186.774 83.9532 192.307 84.1036 197.865C84.1321 198.989 84.5101 200.658 83.9532 201.684C83.3517 202.791 81.5632 203.455 80.5267 204.082C78.1488 205.519 75.7953 207.14 73.2101 208.158C74.5718 199.396 75.7018 186.143 84.1931 181.217Z" fill="#0E0E0F"/>
<path d="M81.6079 241.059C81.9941 242.529 82.3802 243.999 82.7623 245.473C82.1607 245.473 81.5632 245.473 81.0348 245.473C80.4291 243.885 80.7746 241.601 81.6079 241.059Z" fill="#FEFCFB"/>
<path d="M169.537 232.411C169.537 232.871 169.537 233.348 169.537 233.979C168.984 234.011 168.492 234.04 168.041 234.064C167.61 232.688 168.13 232.151 169.537 232.411Z" fill="#FEFCFB"/>
<path d="M80.2828 236.642C80.673 237.879 81.0632 239.113 81.4494 240.351C81.1405 240.241 80.8275 240.127 80.5348 240.021C80.4982 239.492 80.4698 239.072 80.4413 238.633C80.169 238.405 79.9089 238.185 79.3723 237.733C79.6853 237.362 79.9861 237 80.2828 236.642Z" fill="#FEFCFB"/>
<path d="M148.538 263.086C148.774 262.87 149.01 262.65 149.249 262.434C149.469 262.699 149.688 262.964 149.904 263.232C149.867 263.342 149.831 263.448 149.794 263.558C149.371 263.399 148.953 263.245 148.538 263.086Z" fill="#FEFCFB"/>
<path d="M86.2172 265.903C86.2213 266.213 86.2294 266.518 86.2335 266.828C85.9449 266.779 85.6522 266.73 84.9287 266.604C85.6238 266.225 85.9205 266.066 86.2172 265.903Z" fill="#FEFCFB"/>
<path d="M84.2622 279.359C84.3112 280.129 84.3643 280.902 84.4133 281.672C84.3643 280.902 84.3153 280.133 84.2622 279.359Z" fill="#353F51"/>
<path d="M85.3109 261.021C85.3068 261.331 85.3068 261.64 85.3027 261.946C85.3027 261.64 85.3068 261.331 85.3109 261.021Z" fill="#FEFCFB"/>
<path d="M84.4092 275.646C84.3602 276.11 84.3112 276.575 84.2622 277.039C84.3112 276.57 84.3602 276.106 84.4092 275.646Z" fill="#353F51"/>
<path d="M84.4492 255.908C84.5061 256.067 84.559 256.225 84.6159 256.384C84.5143 256.347 84.4126 256.315 84.2297 256.25C84.3151 256.111 84.3842 256.01 84.4492 255.908Z" fill="#FEFCFB"/>
<path d="M164.805 234.557C164.862 234.471 164.915 234.386 164.973 234.296C164.915 234.386 164.858 234.471 164.805 234.557Z" fill="#FEFCFB"/>
<path d="M190.738 150.445C190.742 150.355 190.787 150.302 190.872 150.286C190.848 150.355 190.803 150.408 190.738 150.445Z" fill="#FEFCFB"/>
<path d="M190.901 150.237C190.962 150.147 191.023 150.058 191.085 149.968C191.019 150.058 190.958 150.147 190.901 150.237Z" fill="#FEFCFB"/>
<path d="M84.5711 205.299C84.8719 207.445 84.5345 212.03 87.8351 211.468C87.4408 209.057 87.1441 206.643 86.8799 204.216C86.6888 202.454 85.9125 199.595 86.888 197.95C89.087 194.25 95.0825 195.145 98.1026 196.68C97.8588 200.19 97.6271 203.467 97.3954 206.818C97.7084 207.03 98.0173 207.242 98.6595 207.677C100.716 204.013 98.6148 197.629 102.102 194.889C105.24 192.421 112.829 193.248 115.996 195.333C115.996 198.639 115.922 201.928 115.78 205.23C115.658 208.129 115.321 210.014 116.935 212.449C117.146 212.404 117.353 212.359 117.565 212.315C118.105 209.851 118.361 207.885 118.284 205.332C118.211 202.804 118.926 200.585 119.495 198.146C123.8 198.146 127.926 198.016 132.112 199.192C133.616 199.616 136.165 200.157 137.197 201.484C138.165 202.722 137.823 204.709 137.815 206.163C137.783 210.462 137.884 214.383 139.364 218.467C139.917 219.997 142.616 230.62 145.27 227.44C145.132 225.571 143.047 225.062 144.567 223.21C145.221 222.412 146.567 222.106 147.42 221.553C148.733 220.698 149.794 219.578 150.843 218.43C152.355 216.773 153.428 214.717 155.903 215.433C158.537 216.199 161.057 218.707 162.809 220.726C164.269 222.412 166.72 224.895 166.102 227.249C165.33 230.192 162.521 233.319 161.053 235.994C157.806 241.91 155.781 248.412 152.526 254.332C149.428 259.967 143.697 263.831 138.864 267.91C133.779 272.206 128.69 274.156 122.528 276.444C115.837 278.924 108.659 279.852 101.554 278.688C98.9806 278.264 95.5053 277.242 93.2656 275.878C90.465 274.172 90.1479 270.406 89.4894 267.511C87.6766 259.535 86.3027 251.478 84.6117 243.474C83.8069 239.667 82.8924 235.958 81.4494 232.338C80.1161 228.995 78.1488 225.706 77.2952 222.208C75.6368 219.712 72.5598 214.656 74.0475 211.655C75.7181 208.276 81.1892 206.138 84.5711 205.299Z" fill="#353F51"/>
<path d="M84.5711 205.299C84.8719 207.445 84.5345 212.03 87.8351 211.468C87.4408 209.057 87.1441 206.643 86.8799 204.216C86.6888 202.454 85.9125 199.595 86.888 197.95C89.087 194.25 95.0825 195.145 98.1026 196.68C97.8588 200.19 97.6271 203.467 97.3954 206.818C97.7084 207.03 98.0173 207.242 98.6595 207.677C100.716 204.013 98.6148 197.629 102.102 194.889C105.24 192.421 112.829 193.248 115.996 195.333C115.996 198.639 115.922 201.928 115.78 205.23C115.658 208.129 115.321 210.014 116.935 212.449C117.146 212.404 117.353 212.359 117.565 212.315C118.105 209.851 118.361 207.885 118.284 205.332C118.211 202.804 118.926 200.585 119.495 198.146C123.8 198.146 127.926 198.016 132.112 199.192C133.616 199.616 136.165 200.157 137.197 201.484C138.165 202.722 137.823 204.709 137.815 206.163C137.783 210.462 137.884 214.383 139.364 218.467C139.917 219.997 142.616 230.62 145.27 227.44C145.132 225.571 143.047 225.062 144.567 223.21C145.221 222.412 146.567 222.106 147.42 221.553C148.733 220.698 149.794 219.578 150.843 218.43C152.355 216.773 153.428 214.717 155.903 215.433C158.537 216.199 161.057 218.707 162.809 220.726C164.269 222.412 166.72 224.895 166.102 227.249C165.33 230.192 162.521 233.319 161.053 235.994C157.806 241.91 155.781 248.412 152.526 254.332C149.428 259.967 143.697 263.831 138.864 267.91C133.779 272.206 128.69 274.156 122.528 276.444C115.837 278.924 108.659 279.852 101.554 278.688C98.9806 278.264 95.5053 277.242 93.2656 275.878C90.465 274.172 90.1479 270.406 89.4894 267.511C87.6766 259.535 86.3027 251.478 84.6117 243.474C83.8069 239.667 82.8924 235.958 81.4494 232.338C80.1161 228.995 78.1488 225.706 77.2952 222.208C75.6368 219.712 72.5598 214.656 74.0475 211.655C75.7181 208.276 81.1892 206.138 84.5711 205.299Z" fill="black" fill-opacity="0.3"/>
<path d="M87.6399 284.648C87.6399 281.167 87.6399 277.686 87.6399 273.765C91.0339 276.42 93.1883 279.351 97.6229 280.479C102.663 281.762 108.086 281.566 113.211 281.012C118.345 280.463 123.43 279.026 128.21 277.096C133.007 275.158 136.884 271.811 141.461 269.51C146.245 273.533 144.063 280.292 143.368 285.67C142.693 290.91 142.904 296.651 137.592 299.253C132.059 301.96 125.58 304.089 119.715 305.946C116.792 306.87 113.569 307.102 110.537 307.428C108.777 307.619 107.012 307.689 105.248 307.514C104.009 307.391 102.769 306.895 101.554 307.155C96.6839 305.172 92.672 303.764 89.0788 299.761C85.7213 296.024 87.5301 289.412 87.7984 284.758C87.7456 284.721 87.6927 284.685 87.6399 284.648Z" fill="#74A248"/>
<path d="M87.6399 284.648C87.6399 281.167 87.6399 277.686 87.6399 273.765C91.0339 276.42 93.1883 279.351 97.6229 280.479C102.663 281.762 108.086 281.566 113.211 281.012C118.345 280.463 123.43 279.026 128.21 277.096C133.007 275.158 136.884 271.811 141.461 269.51C146.245 273.533 144.063 280.292 143.368 285.67C142.693 290.91 142.904 296.651 137.592 299.253C132.059 301.96 125.58 304.089 119.715 305.946C116.792 306.87 113.569 307.102 110.537 307.428C108.777 307.619 107.012 307.689 105.248 307.514C104.009 307.391 102.769 306.895 101.554 307.155C96.6839 305.172 92.672 303.764 89.0788 299.761C85.7213 296.024 87.5301 289.412 87.7984 284.758C87.7456 284.721 87.6927 284.685 87.6399 284.648Z" fill="black" fill-opacity="0.3"/>
<path d="M137.457 198.692C131.706 196.098 126.044 194.364 119.877 195.825C117.365 191.974 119.609 185.321 119.593 181.009C119.577 175.708 119.455 170.399 119.243 165.102C119.028 159.683 118.032 154.374 117.678 148.975C117.455 145.592 118.91 139.761 123.45 140.645C127.946 141.516 130.117 146.723 131.486 150.579C133.348 155.827 133.417 161.405 133.881 166.893C134.332 172.211 135.466 177.341 136.258 182.601C137.063 187.931 136.596 193.439 137.457 198.692Z" fill="#F5B895"/>
<path d="M137.457 198.692C131.706 196.098 126.044 194.364 119.877 195.825C117.365 191.974 119.609 185.321 119.593 181.009C119.577 175.708 119.455 170.399 119.243 165.102C119.028 159.683 118.032 154.374 117.678 148.975C117.455 145.592 118.91 139.761 123.45 140.645C127.946 141.516 130.117 146.723 131.486 150.579C133.348 155.827 133.417 161.405 133.881 166.893C134.332 172.211 135.466 177.341 136.258 182.601C137.063 187.931 136.596 193.439 137.457 198.692Z" fill="black" fill-opacity="0.15"/>
<path d="M115.532 191.904C110.663 190.211 105.862 190.939 101.005 191.831C100.745 188.399 100.468 184.971 100.163 181.542C100.082 180.63 99.9683 179.881 99.8423 179.23C99.5659 177.829 99.2407 176.612 99.07 176.009C98.944 175.57 98.8505 175.268 98.8302 175.199C98.5456 174.251 97.4319 168.958 100.314 165.806C103.858 161.926 111.435 163.49 112.37 165.603C112.423 165.725 112.557 166.173 112.829 167.068C112.951 167.472 113.248 168.481 113.597 169.817C113.756 170.427 113.927 171.103 114.101 171.852C114.374 173.029 114.593 174.112 114.837 175.386C115.955 181.188 117.207 186.074 115.532 191.904Z" fill="#F5B895"/>
<path d="M115.532 191.904C110.663 190.211 105.862 190.939 101.005 191.831C100.745 188.399 100.468 184.971 100.163 181.542C100.082 180.63 99.9683 179.881 99.8423 179.23C99.5659 177.829 99.2407 176.612 99.07 176.009C98.944 175.57 98.8505 175.268 98.8302 175.199C98.5456 174.251 97.4319 168.958 100.314 165.806C103.858 161.926 111.435 163.49 112.37 165.603C112.423 165.725 112.557 166.173 112.829 167.068C112.951 167.472 113.248 168.481 113.597 169.817C113.756 170.427 113.927 171.103 114.101 171.852C114.374 173.029 114.593 174.112 114.837 175.386C115.955 181.188 117.207 186.074 115.532 191.904Z" fill="black" fill-opacity="0.15"/>
<path d="M167.927 223.177C165.256 217.587 163.923 216.891 157.18 212.893C159.96 208.129 163.887 204.082 168.512 201.098C172.772 198.354 179.487 196.749 183.983 199.986C185.609 201.155 187.592 203.671 187.133 205.808C186.629 208.162 183.434 210.34 181.788 211.899C177.69 215.792 173.122 220.91 167.927 223.177Z" fill="#F5B895"/>
<path d="M167.927 223.177C165.256 217.587 163.923 216.891 157.18 212.893C159.96 208.129 163.887 204.082 168.512 201.098C172.772 198.354 179.487 196.749 183.983 199.986C185.609 201.155 187.592 203.671 187.133 205.808C186.629 208.162 183.434 210.34 181.788 211.899C177.69 215.792 173.122 220.91 167.927 223.177Z" fill="black" fill-opacity="0.15"/>
<path d="M84.1932 181.217C84.1932 186.774 83.9533 192.307 84.1037 197.865C84.1322 198.989 84.5102 200.658 83.9533 201.684C83.3517 202.791 81.5633 203.455 80.5268 204.082C78.1489 205.519 75.7954 207.14 73.2102 208.158C74.5719 199.396 75.7019 186.143 84.1932 181.217Z" fill="#F5B895"/>
<path d="M84.1932 181.217C84.1932 186.774 83.9533 192.307 84.1037 197.865C84.1322 198.989 84.5102 200.658 83.9533 201.684C83.3517 202.791 81.5633 203.455 80.5268 204.082C78.1489 205.519 75.7954 207.14 73.2102 208.158C74.5719 199.396 75.7019 186.143 84.1932 181.217Z" fill="black" fill-opacity="0.15"/>
<path d="M96.6799 176.274C97.1879 181.881 97.6635 187.112 98.1269 192.21C94.3711 192.755 90.8713 193.264 86.9773 193.83C87.1277 190.98 87.274 188.13 87.4244 185.284C87.5301 183.338 87.4163 181.103 88.274 179.303C89.7779 176.152 93.7085 176.502 96.6799 176.274Z" fill="#F5B895"/>
<path d="M96.6799 176.274C97.1879 181.881 97.6635 187.112 98.1269 192.21C94.3711 192.755 90.8713 193.264 86.9773 193.83C87.1277 190.98 87.274 188.13 87.4244 185.284C87.5301 183.338 87.4163 181.103 88.274 179.303C89.7779 176.152 93.7085 176.502 96.6799 176.274Z" fill="black" fill-opacity="0.15"/>
</g>
<defs>
<clipPath id="clip0_310_55">
<rect width="226" height="353" fill="white"/>
</clipPath>
</defs>
</svg>
