<?xml version="1.0" encoding="utf-8"?>
<!-- Generator: Adobe Illustrator 27.6.1, SVG Export Plug-In . SVG Version: 6.00 Build 0)  -->
<svg version="1.1" id="Calque_1" xmlns="http://www.w3.org/2000/svg" xmlns:xlink="http://www.w3.org/1999/xlink" x="0px" y="0px"
	 viewBox="0 0 556 867.01" style="enable-background:new 0 0 556 867.01;" xml:space="preserve">
<style type="text/css">
	.st0{fill:#070707;}
	.st1{fill:#0E0E0F;}
	.st2{fill:#F5B895;}
	.st3{fill:#FEFCFB;}
	.st4{fill:#353F51;}
	.st5{fill:#74A248;}
</style>
<path class="st0" d="M-443.55,515.87"/>
<path class="st1" d="M-887.8,539.67c6.86-6.34,13.77-12.6,20.75-18.81c6.67-5.95,11.42-12.58,16.61-19.83
	c0.09-0.14,0.18-0.27,0.26-0.41c0.64-1.35,1.28-2.7,1.93-4.05c0.09-0.12,0.18-0.24,0.27-0.36c3.58-7.54,7.2-14.99,10.21-22.78
	c2.67-6.92,6.62-12.29,12.32-17.03c0.38-0.34,0.75-0.69,1.13-1.03c2.44-2.12,4.88-4.24,6.76-5.87c-2.17-5.11-5.92-10.81-5.8-16.52
	c0.06-2.96,1.41-5.71,1.95-8.59c0.51-2.71,0.39-5.38,0.37-8.12c-0.04-5.27,0.48-10.63,3.43-15.16c1.36-2.08,3.37-3.33,4.85-5.22
	c1.8-2.3,1.65-4.89,1.42-7.65c-1.01-12.26-2.66-24.54-3.95-36.76c-1.31-12.49-1.88-25.13-1.88-37.7c1.77,0.55,3.53,1.11,5.29,1.66
	c1.19,25.61,2.55,51.2,6.17,76.68c10.7-3.83,21.6-8.83,32.76-11.03c11.75-2.32,23.09-0.55,34.26,3.44c1.27-16.51,2.49-33,5.23-49.34
	c1.3,0.19,2.59,0.39,4.05,0.6c-0.77,9.28-1.66,18.52-2.71,27.77c-0.46,4.06-0.89,8.14-1.01,12.23c-0.1,3.22-1.29,7.88-0.31,10.91
	c0.87,2.67,3.38,4.13,5.34,5.89c2.58,2.32,4.58,4.97,5.66,8.3c1.29,3.96-0.12,7.02-0.51,10.94c-0.46,4.58,0.31,9.46,0.54,14.05
	c0.08,1.22,0.16,2.45,0.24,3.67c0,1.23,0,2.46,0,3.69c-0.08,0.74-0.15,1.47-0.23,2.21c-0.35,3.91-0.55,7.83-2.55,11.39
	c-0.4,0.71-0.25,1.72-0.35,2.6c0.01,0.49,0.02,0.98,0.03,1.47c0.37,1.48,0.74,2.96,1.11,4.44c0,0.24,0,0.48-0.01,0.72
	c0.12,0.37,0.23,0.75,0.35,1.12c0,0.49-0.01,0.98-0.01,1.47c0.37,2.45,0.74,4.91,1.1,7.36c0.09,0.25,0.18,0.5,0.26,0.75
	c0.05,0.37,0.1,0.74,0.16,1.1c0.07,0.49,0.14,0.98,0.21,1.47c0.92,4.66,1.96,9.24,2.31,13.98c0.61,2.33,1.22,4.67,1.84,7
	c0.08,0.38,0.17,0.75,0.25,1.13c0.62,1.96,1.24,3.92,1.86,5.88c3.01,7.57,6.03,15.12,8.95,22.72c2.77,7.22,7.58,15.37,7.01,23.31
	c0.01,0.24,0.01,0.48,0.02,0.72c-0.13,0.87-0.27,1.73-0.4,2.6c0,0.24,0,0.48,0,0.72c-0.41,2.81-0.89,5.59-1.45,8.38
	c0.16,0.03,0.33,0.05,0.49,0.08c-1.84,5.57-3.89,11.05-5.91,16.56c-3.6,9.83-5.77,12.03-7.25,13.6c-3.56,3.76-7.37,5.52-11.42,7.38
	c-3.52,1.62-8.46,3.44-14.69,4.39c-0.25,1-0.49,2.01-0.74,3.01c-0.66,7.77-5.2,14.23-11.52,16.3c-4.92,1.61-9.36,0.05-10.75-0.5
	c-7.5-3-9.84-10.41-10.14-11.43l0,0c0.83,7.67,1.87,15.3,2.46,22.99c0.46,6.03,2.4,13.98-0.23,19.71
	c-2.05,4.48-6.84,7.33-11.68,7.71c-6.61,0.51-10.57-4.76-14.72-9.05c-0.75-1.62-1.25-2.7-1.75-3.77c-0.9-2.07-1.8-4.15-2.71-6.22
	c-4.21-12.8-4.22-26.61-5.57-39.9c-0.69-6.86-2.47-13.56-2.88-20.46c-0.39-6.54-0.03-13.06-0.73-19.6
	c0.13-4.68,1.63-35.11-5.85-33.78c-2.6,0.46-5.67,4.49-7.57,6.23c-2.41,2.2-4.8,4.42-7.12,6.72c-4.61,4.58-7.74,10.23-12.24,14.86
	c-8.27,8.5-18.93,13.97-31.01,12.03c-5-0.8-9.74-3.02-12.65-7.32c-3.7-5.46-3.26-9.37-0.46-14.87
	C-888.16,540.18-887.98,539.93-887.8,539.67z M-722.67,547.04c5.38-1.33,14.08-4.72,16.74-10.09c2.37-4.76-2.53-12.78-5.16-16.74
	c-1.36-5.55-4.49-10.77-6.61-16.07c-2.29-5.74-3.75-11.63-5.03-17.67c-2.69-12.69-4.87-25.48-7.75-38.14
	c-1.05-4.6-1.55-10.57-6-13.28c-3.56-2.17-9.09-3.79-13.17-4.46c-11.29-1.85-22.7-0.38-33.34,3.56
	c-9.79,3.63-17.88,6.72-25.97,13.54c-7.68,6.48-16.79,12.61-21.71,21.55c-5.17,9.4-8.39,19.71-13.55,29.1
	c-2.33,4.24-6.8,9.2-8.03,13.88c-0.98,3.74,2.91,7.68,5.23,10.35c2.78,3.2,6.79,7.18,10.97,8.4c3.94,1.14,5.64-2.13,8.04-4.76
	c1.67-1.82,3.36-3.6,5.44-4.96c1.36-0.88,3.5-1.37,4.54-2.63c2.42-2.94-0.9-3.75-1.12-6.71c4.22-5.04,8.51,11.81,9.39,14.24
	c2.35,6.48,2.51,12.7,2.46,19.52c-0.02,2.31-0.55,5.46,0.98,7.43c1.64,2.11,5.69,2.96,8.08,3.64c6.65,1.87,13.21,1.66,20.05,1.66
	c0.9-3.87,2.04-7.39,1.92-11.4c-0.12-4.05,0.29-7.17,1.15-11.08c0.33-0.07,0.67-0.14,1-0.21c2.56,3.87,2.03,6.86,1.83,11.46
	c-0.22,5.24-0.34,10.46-0.34,15.71c5.03,3.31,17.09,4.62,22.08,0.7c5.54-4.35,2.2-14.48,5.47-20.29c1.02,0.69,1.51,1.02,2.01,1.36
	c-0.37,5.31-0.74,10.51-1.13,16.08c4.8,2.43,14.33,3.85,17.82-2.02c1.55-2.61,0.32-7.15,0.01-9.94c-0.42-3.85-0.89-7.68-1.52-11.51
	C-722.61,536.36-723.15,543.64-722.67,547.04z M-727.54,421.14c-0.09-0.06-0.17-0.12-0.26-0.18c0.43-7.38,3.3-17.88-2.03-23.8
	c-5.71-6.35-12.09-8.58-19.83-11.73c-1.93,0.42-3.9-0.37-5.87-0.57c-2.8-0.28-5.61-0.17-8.4,0.13c-4.82,0.52-9.95,0.89-14.59,2.35
	c-9.32,2.95-19.62,6.33-28.41,10.62c-8.44,4.12-8.1,13.24-9.18,21.55c-1.1,8.53-4.57,19.26,3.03,25.64
	c7.28-3.65,13.44-8.96,21.06-12.04c7.6-3.07,15.68-5.34,23.84-6.22c8.14-0.87,16.76-1.18,24.77,0.85
	c7.05,1.79,10.47,6.44,15.87,10.65C-727.54,432.19-727.54,426.67-727.54,421.14z M-806.72,557.53c1.37,8.34,0.62,17.07,1.9,25.53
	c1.26,8.35,3.07,16.49,3.78,24.93c0.74,8.71,0.85,17.56,3.81,25.89c2.17,6.11,5.62,14.38,12.77,15.76c7.22,1.4,9.52-7.85,9.17-13.22
	c-0.56-8.56-2.15-16.99-2.49-25.59c-0.33-8.4-0.53-16.83-0.55-25.24c-0.02-6.84,3.54-17.4-0.45-23.51
	C-788.58,564.39-797.58,561.64-806.72,557.53z M-771.87,568.3c-2.66,9.25-0.67,17,1.1,26.22c0.6,3.11,1.33,6.35,1.33,6.35
	c0.48,2.02,0.91,3.56,1.17,4.49c0.8,2.86,1.2,4.29,1.41,4.68c2.27,4.08,14.5,5.32,19.16-0.32c2.26-2.74,2-6.83,1.48-15.02
	c-0.24-3.79-0.65-5.41-1.24-9.95c-0.5-3.78-1.09-9.36-1.34-16.33C-756.5,569.83-764.14,570.99-771.87,568.3z M-855.15,518.68
	c-8.25,3.6-15.51,11.72-22.03,17.89c-2.61,2.47-7.69,5.93-8.49,9.67c-0.73,3.39,2.42,7.38,5.01,9.24
	c7.15,5.13,17.82,2.59,24.59-1.76c7.36-4.73,13.59-11.15,18.01-18.71C-848.79,528.65-850.9,527.55-855.15,518.68z M-722.07,585.26
	c13.5-7.82,15.29-28.85,17.46-42.75c-4.11,1.61-7.85,4.19-11.63,6.47c-1.65,0.99-4.49,2.05-5.45,3.8c-0.89,1.63-0.29,4.28-0.24,6.06
	C-721.68,567.66-722.07,576.44-722.07,585.26z M-741.91,593.1c4.72-0.36,10.97,0.19,13.36-4.81c1.36-2.85,1.18-6.4,1.35-9.49
	c0.24-4.52,0.48-9.04,0.71-13.56c-6.19,0.9-11.75,1.71-17.72,2.57C-743.48,575.9-742.72,584.2-741.91,593.1z"/>
<path class="st2" d="M-733.47,335.18c-2.73,16.34-3.96,32.83-5.23,49.34c-11.17-3.99-22.51-5.76-34.26-3.44
	c-11.16,2.2-22.06,7.21-32.76,11.03c-3.62-25.48-4.98-51.07-6.17-76.68c11.99,2.76,23.81,5.86,35.74,8.82
	c5.95,1.48,11.87,3.1,17.84,4.5c3.23,0.76,6.57,1.24,9.77,2.13c2.18,0.61,4.23,1.83,6.56,1.48
	C-739.14,333.3-736.31,334.24-733.47,335.18z"/>
<path class="st3" d="M-717.96,490.3c-0.61-2.33-1.22-4.67-1.84-7c0.95,0,1.91,0,2.75,0C-716.09,485.82-716.63,489.45-717.96,490.3z"
	/>
<path class="st3" d="M-857.71,504.03c0-0.73,0-1.48,0-2.49c0.88-0.05,1.66-0.1,2.38-0.14
	C-854.64,503.59-855.47,504.44-857.71,504.03z"/>
<path class="st3" d="M-715.85,497.31c-0.62-1.96-1.24-3.92-1.86-5.88c0.49,0.18,0.99,0.35,1.46,0.52c0.06,0.84,0.1,1.51,0.15,2.2
	c0.43,0.36,0.84,0.71,1.7,1.43C-714.9,496.17-715.38,496.74-715.85,497.31z"/>
<path class="st3" d="M-824.33,455.35c-0.38,0.34-0.75,0.69-1.13,1.03c-0.35-0.42-0.7-0.84-1.04-1.26c0.06-0.17,0.12-0.34,0.17-0.52
	C-825.66,454.86-824.99,455.11-824.33,455.35z"/>
<path class="st3" d="M-725.29,450.89c-0.01-0.49-0.02-0.98-0.03-1.47c0.46,0.08,0.92,0.16,2.07,0.35
	C-724.34,450.37-724.81,450.63-725.29,450.89z"/>
<path class="st4" d="M-722.18,429.53c-0.08-1.22-0.16-2.45-0.24-3.67C-722.34,427.09-722.26,428.31-722.18,429.53z"/>
<path class="st3" d="M-723.84,458.63c0-0.49,0.01-0.98,0.01-1.47C-723.83,457.65-723.84,458.14-723.84,458.63z"/>
<path class="st3" d="M-722.11,469.32c-0.07-0.49-0.14-0.98-0.21-1.47C-722.25,468.34-722.18,468.83-722.11,469.32z"/>
<path class="st4" d="M-722.41,435.43c0.08-0.74,0.15-1.47,0.23-2.21C-722.26,433.96-722.33,434.69-722.41,435.43z"/>
<path class="st3" d="M-722.47,466.75c-0.09-0.25-0.18-0.5-0.26-0.75c0.16,0.06,0.32,0.11,0.62,0.21
	C-722.26,466.42-722.37,466.58-722.47,466.75z"/>
<path class="st3" d="M-699.88,544.06c-0.01-0.24-0.01-0.48-0.02-0.72C-699.89,543.58-699.88,543.82-699.88,544.06z"/>
<path class="st3" d="M-700.28,547.38c0-0.24,0-0.48,0-0.72C-700.28,546.9-700.28,547.14-700.28,547.38z"/>
<path class="st3" d="M-724.18,456.04c0-0.24,0-0.48,0.01-0.72C-724.18,455.56-724.18,455.8-724.18,456.04z"/>
<path class="st3" d="M-850.18,500.62c-0.09,0.14-0.18,0.27-0.26,0.41C-850.36,500.89-850.27,500.76-850.18,500.62z"/>
<path class="st3" d="M-847.99,496.2c-0.09,0.12-0.18,0.24-0.27,0.36C-848.17,496.44-848.08,496.32-847.99,496.2z"/>
<path class="st3" d="M-887.8,539.67c-0.01,0.14-0.08,0.22-0.21,0.25C-887.98,539.82-887.9,539.73-887.8,539.67z"/>
<path class="st3" d="M-888.06,540c-0.1,0.14-0.19,0.28-0.29,0.42C-888.25,540.29-888.15,540.14-888.06,540z"/>
<path class="st4" d="M-722.67,547.04c-0.48-3.4,0.06-10.68-5.19-9.78c0.63,3.82,1.1,7.65,1.52,11.51c0.3,2.79,1.54,7.33-0.01,9.94
	c-3.5,5.87-13.02,4.45-17.82,2.02c0.39-5.57,0.75-10.77,1.13-16.08c-0.5-0.34-0.99-0.67-2.01-1.36c-3.27,5.81,0.07,15.94-5.47,20.29
	c-4.99,3.92-17.05,2.61-22.08-0.7c0-5.25,0.12-10.46,0.34-15.71c0.2-4.6,0.73-7.59-1.83-11.46c-0.33,0.07-0.67,0.14-1,0.21
	c-0.86,3.91-1.26,7.03-1.15,11.08c0.12,4.01-1.02,7.53-1.92,11.4c-6.84,0-13.4,0.21-20.05-1.66c-2.39-0.67-6.44-1.53-8.08-3.64
	c-1.54-1.97-1-5.12-0.98-7.43c0.05-6.82-0.11-13.04-2.46-19.52c-0.88-2.43-5.17-19.28-9.39-14.24c0.22,2.96,3.53,3.77,1.12,6.71
	c-1.04,1.27-3.18,1.75-4.54,2.63c-2.09,1.35-3.77,3.13-5.44,4.96c-2.4,2.63-4.11,5.89-8.04,4.76c-4.19-1.21-8.19-5.19-10.97-8.4
	c-2.32-2.67-6.21-6.61-5.23-10.35c1.23-4.67,5.69-9.63,8.03-13.88c5.16-9.38,8.38-19.7,13.55-29.1
	c4.92-8.94,14.03-15.07,21.71-21.55c8.08-6.81,16.17-9.91,25.97-13.54c10.63-3.94,22.04-5.41,33.34-3.56
	c4.09,0.67,9.61,2.29,13.17,4.46c4.45,2.71,4.95,8.68,6,13.28c2.88,12.66,5.06,25.44,7.75,38.14c1.28,6.04,2.73,11.92,5.03,17.67
	c2.12,5.3,5.25,10.52,6.61,16.07c2.63,3.96,7.52,11.99,5.16,16.74C-708.6,542.32-717.29,545.72-722.67,547.04z"/>
<path class="st5" d="M-727.54,421.14c0,5.52,0,11.05,0,17.27c-5.4-4.21-8.82-8.86-15.87-10.65c-8.01-2.03-16.63-1.72-24.77-0.85
	c-8.16,0.87-16.24,3.15-23.84,6.22c-7.63,3.08-13.78,8.39-21.06,12.04c-7.6-6.38-4.14-17.11-3.03-25.64
	c1.07-8.31,0.74-17.43,9.18-21.55c8.79-4.3,19.09-7.68,28.41-10.62c4.64-1.47,9.76-1.83,14.59-2.35c2.8-0.3,5.6-0.41,8.4-0.13
	c1.97,0.2,3.94,0.98,5.87,0.57c7.74,3.15,14.12,5.38,19.83,11.73c5.33,5.93,2.46,16.42,2.03,23.8
	C-727.72,421.03-727.63,421.09-727.54,421.14z"/>
<path class="st2" d="M-806.72,557.53c9.14,4.11,18.14,6.86,27.94,4.55c3.99,6.11,0.43,16.67,0.45,23.51
	c0.03,8.41,0.22,16.84,0.55,25.24c0.34,8.6,1.93,17.02,2.49,25.59c0.35,5.37-1.95,14.62-9.17,13.22
	c-7.14-1.39-10.59-9.65-12.77-15.76c-2.96-8.33-3.07-17.18-3.81-25.89c-0.71-8.44-2.52-16.58-3.78-24.93
	C-806.1,574.6-805.35,565.86-806.72,557.53z"/>
<path class="st2" d="M-771.87,568.3c7.74,2.69,15.37,1.53,23.09,0.12c0.42,5.45,0.85,10.89,1.34,16.33
	c0.13,1.45,0.31,2.63,0.51,3.67c0.44,2.22,0.95,4.15,1.23,5.11c0.2,0.7,0.35,1.17,0.38,1.29c0.45,1.51,2.22,9.9-2.36,14.9
	c-5.64,6.15-17.67,3.67-19.16,0.32c-0.09-0.19-0.3-0.91-0.73-2.33c-0.19-0.64-0.67-2.24-1.22-4.36c-0.25-0.97-0.52-2.04-0.8-3.23
	c-0.43-1.86-0.78-3.59-1.17-5.6C-772.55,585.3-774.54,577.55-771.87,568.3z"/>
<path class="st2" d="M-855.15,518.68c4.24,8.87,6.36,9.97,17.08,16.32c-4.42,7.56-10.66,13.98-18.01,18.71
	c-6.77,4.36-17.44,6.9-24.59,1.76c-2.58-1.85-5.73-5.85-5.01-9.24c0.8-3.73,5.88-7.19,8.49-9.67
	C-870.66,530.4-863.4,522.28-855.15,518.68z"/>
<path class="st2" d="M-722.07,585.26c0-8.82,0.38-17.6,0.14-26.42c-0.05-1.78-0.65-4.43,0.24-6.06c0.96-1.76,3.8-2.81,5.45-3.8
	c3.78-2.28,7.52-4.85,11.63-6.47C-706.78,556.41-708.57,577.44-722.07,585.26z"/>
<path class="st2" d="M-741.91,593.1c-0.81-8.89-1.56-17.2-2.3-25.29c5.97-0.87,11.53-1.67,17.72-2.57
	c-0.24,4.52-0.47,9.04-0.71,13.56c-0.17,3.09,0.01,6.64-1.35,9.49C-730.94,593.29-737.19,592.74-741.91,593.1z"/>
<path class="st2" d="M-740.1,622.48"/>
<g>
	<path class="st1" d="M172.81,509.97c-0.89,12.28,6.56,24.9,10.85,36.08c4.52,11.77,9.19,23.47,13.85,35.18
		c0.96,3.04,1.92,6.07,2.87,9.11c0.13,0.58,0.26,1.16,0.39,1.74c0.95,3.61,1.9,7.22,2.84,10.84c0.54,7.33,2.15,14.43,3.58,21.64
		c0.11,0.76,0.22,1.52,0.33,2.28l0.24,1.71c0.14,0.39,0.27,0.78,0.41,1.17c0.57,3.8,1.14,7.6,1.71,11.4
		c-0.01,0.76-0.01,1.52-0.02,2.27c0.18,0.58,0.36,1.16,0.54,1.73c0,0.37-0.01,0.74-0.01,1.11c0.57,2.29,1.15,4.58,1.72,6.87
		c0.01,0.76,0.03,1.51,0.04,2.27c-0.16,1.35,0.07,2.93-0.54,4.02c-3.09,5.51-3.41,11.59-3.95,17.63c-0.12,1.14-0.24,2.28-0.36,3.42
		c0,1.9,0,3.81,0,5.71c0.12,1.89,0.25,3.79,0.37,5.68c0.36,7.1,1.55,14.66,0.84,21.74c-0.61,6.06-2.78,10.8-0.79,16.94
		c1.67,5.16,4.6,8.47,8.76,12.84c3.25,3.41,8.55,8.22,16.39,12.48c17.29,6.18,34.85,8.92,53.03,5.33
		c17.28-3.41,34.16-11.16,50.72-17.08c3.07-0.89,6.15-1.77,9.22-2.66c0.37-1.09,0.9-2.16,1.7-3.18c2.29-2.93,5.4-4.85,7.5-8.08
		c4.57-7.01,5.38-15.3,5.31-23.46c-0.04-4.24-0.22-8.37,0.57-12.57c0.84-4.45,2.92-8.7,3.01-13.29c0.19-8.83-5.61-17.66-8.97-25.57
		c2.9-2.52,6.68-5.81,10.46-9.09c0.58-0.53,1.16-1.07,1.75-1.6c8.83-7.33,14.95-15.65,19.08-26.36
		c4.65-12.07,10.26-23.59,15.8-35.27c0.14-0.19,0.28-0.37,0.42-0.56c0.99-2.09,1.99-4.18,2.98-6.27c0.14-0.21,0.27-0.42,0.41-0.64
		c8.04-11.22,15.38-21.48,25.71-30.7c10.79-9.62,21.49-19.31,32.11-29.12c0.28-0.39,0.56-0.78,0.84-1.17
		c4.35-8.51,5.02-14.56-0.71-23.01c-4.51-6.66-11.84-10.09-19.58-11.33c-18.69-3-35.19,5.46-48,18.62
		c-6.97,7.16-11.82,15.91-18.95,23c-3.58,3.56-7.28,7.01-11.02,10.41c-2.94,2.68-7.7,8.92-11.72,9.64
		c-11.58,2.06-9.25-45.05-9.05-52.29c-1.08-10.12-0.52-20.21-1.12-30.33c-0.63-10.68-3.38-21.05-4.45-31.67
		c-2.08-20.58-2.1-41.95-8.62-61.76c-1.4-3.21-2.79-6.42-4.19-9.63c-0.77-1.66-1.54-3.33-2.71-5.84
		c-6.43-6.65-12.56-14.8-22.79-14.01c-7.49,0.58-14.91,4.99-18.08,11.93c-4.06,8.87-1.06,21.19-0.35,30.51
		c0.91,11.9,2.51,23.72,3.8,35.59c-0.47-1.58-4.08-13.04-15.7-17.69c-2.15-0.86-9.02-3.27-16.64-0.78
		c-9.79,3.2-16.82,13.19-17.83,25.23c-0.38,1.55-0.76,3.11-1.14,4.66c-9.64,1.47-17.3,4.29-22.74,6.79
		c-6.26,2.88-12.17,5.6-17.67,11.43c-2.3,2.43-5.65,5.84-11.23,21.05c-3.13,8.53-6.3,17.01-9.15,25.64
		c0.26,0.04,0.51,0.08,0.77,0.12c-0.86,4.32-1.61,8.61-2.24,12.97c0,0.37,0,0.75,0,1.12c-0.21,1.34-0.41,2.68-0.62,4.02
		C172.79,509.23,172.8,509.6,172.81,509.97z M352.71,701.63c-1.66,12.87-1.14,26.97-14.21,33.36
		c-13.61,6.65-29.55,11.88-43.98,16.44c-7.19,2.27-15.12,2.84-22.58,3.64c-4.33,0.47-8.67,0.64-13.01,0.21
		c-3.05-0.3-6.1-1.52-9.09-0.88c-11.98-4.87-21.85-8.33-30.69-18.16c-8.26-9.18-3.81-25.42-3.15-36.85
		c-0.13-0.09-0.27-0.18-0.4-0.27v-26.73c8.35,6.52,13.65,13.72,24.56,16.49c12.4,3.15,25.74,2.67,38.35,1.31
		c12.63-1.35,25.14-4.88,36.9-9.62c11.8-4.76,21.34-12.98,32.6-18.63C359.78,671.82,354.42,688.42,352.71,701.63z M414.57,493.92
		c10.48-6.74,27-10.68,38.06-2.73c4,2.87,8.88,9.05,7.75,14.3c-1.24,5.78-9.1,11.13-13.15,14.96
		c-10.09,9.55-21.33,22.12-34.11,27.69c-6.57-13.73-9.85-15.44-26.44-25.26C393.53,511.19,403.19,501.25,414.57,493.92z
		 M303.71,345.44c11.06,2.14,16.4,14.93,19.77,24.4c4.58,12.89,4.75,26.59,5.89,40.07c1.11,13.06,3.9,25.66,5.85,38.58
		c1.98,13.09,0.83,26.61,2.95,39.52c-14.15-6.37-28.08-10.63-43.25-7.04c-6.18-9.46-0.66-25.8-0.7-36.39
		c-0.04-13.02-0.34-26.06-0.86-39.07c-0.53-13.31-2.98-26.35-3.85-39.61C288.97,357.59,292.54,343.28,303.71,345.44z M246.79,407.23
		c7.21-8.74,26.15-6.81,29.66-0.5c0.34,0.61,0.96,2.82,2.19,7.25c0.41,1.45,1.06,3.83,1.81,6.96c0,0,1.13,5.01,2.06,9.83
		c2.75,14.27,5.83,26.26,1.71,40.58c-11.98-4.16-23.79-2.37-35.74-0.18c-0.38-10.79-1.3-19.42-2.07-25.27
		c-0.92-7.03-1.55-9.54-1.92-15.41C243.7,417.81,243.29,411.47,246.79,407.23z M215.08,455.08c0.26-4.78-0.02-10.27,2.09-14.69
		c3.7-7.74,13.37-6.88,20.67-7.44c1.25,13.77,2.42,26.62,3.56,39.14c-9.24,1.34-17.85,2.59-27.43,3.98
		C214.35,469.08,214.71,462.08,215.08,455.08z M216.09,519.39c-0.97-5.92-1.7-11.85-2.35-17.81c-0.47-4.33-2.38-11.35,0.02-15.39
		c5.41-9.09,20.16-6.89,27.59-3.12c-0.6,8.62-1.17,16.67-1.74,24.9c0.77,0.52,1.53,1.04,3.11,2.11c5.06-9-0.11-24.68,8.47-31.41
		c7.72-6.06,26.39-4.03,34.18,1.09c0,8.12-0.18,16.2-0.53,24.31c-0.3,7.12-1.13,11.75,2.84,17.73c0.52-0.11,1.03-0.22,1.55-0.33
		c1.33-6.05,1.96-10.88,1.77-17.15c-0.18-6.21,1.58-11.66,2.98-17.65c10.59,0,20.74-0.32,31.04,2.57c3.7,1.04,9.97,2.37,12.51,5.63
		c2.38,3.04,1.54,7.92,1.52,11.49c-0.08,10.56,0.17,20.19,3.81,30.22c1.36,3.76,8,29.85,14.53,22.04
		c-0.34-4.59-5.47-5.84-1.73-10.39c1.61-1.96,4.92-2.71,7.02-4.07c3.23-2.1,5.84-4.85,8.42-7.67c3.72-4.07,6.36-9.12,12.45-7.36
		c6.48,1.88,12.68,8.04,16.99,13c3.59,4.14,9.62,10.24,8.1,16.02c-1.9,7.23-8.81,14.91-12.42,21.48
		c-7.99,14.53-12.97,30.5-20.98,45.04c-7.62,13.84-21.72,23.33-33.61,33.35c-12.51,10.55-25.03,15.34-40.19,20.96
		c-16.46,6.09-34.12,8.37-51.6,5.51c-6.33-1.04-14.88-3.55-20.39-6.9c-6.89-4.19-7.67-13.44-9.29-20.55
		c-4.46-19.59-7.84-39.38-12-59.04c-1.98-9.35-4.23-18.46-7.78-27.35c-3.28-8.21-8.12-16.29-10.22-24.88
		c-4.08-6.13-11.65-18.55-7.99-25.92c4.13-8.3,17.59-13.56,25.92-15.61C208.8,509.51,207.97,520.77,216.09,519.39z M207.13,445.09
		c0,13.65-0.59,27.24-0.22,40.89c0.07,2.76,1,6.86-0.37,9.38c-1.48,2.72-5.88,4.35-8.43,5.89c-5.85,3.53-11.64,7.51-18,10.01
		C183.46,489.74,186.24,457.19,207.13,445.09z"/>
	<path class="st3" d="M200.77,592.07c0.95,3.61,1.9,7.22,2.84,10.84c-1.48,0-2.95,0-4.25,0
		C197.87,599.01,198.72,593.4,200.77,592.07z"/>
	<path class="st3" d="M417.09,570.83c0,1.13,0,2.3,0,3.85c-1.36,0.08-2.57,0.15-3.68,0.21
		C412.35,571.51,413.63,570.19,417.09,570.83z"/>
	<path class="st3" d="M197.51,581.22c0.96,3.04,1.92,6.07,2.87,9.11c-0.76-0.27-1.53-0.55-2.25-0.81c-0.09-1.3-0.16-2.33-0.23-3.41
		c-0.67-0.56-1.31-1.1-2.63-2.21C196.04,582.99,196.78,582.1,197.51,581.22z"/>
	<path class="st3" d="M365.43,646.17c0.58-0.53,1.16-1.07,1.75-1.6c0.54,0.65,1.08,1.3,1.61,1.96c-0.09,0.27-0.18,0.53-0.27,0.8
		C367.48,646.94,366.45,646.56,365.43,646.17z"/>
	<path class="st3" d="M212.11,653.09c0.01,0.76,0.03,1.51,0.04,2.27c-0.71-0.12-1.43-0.24-3.21-0.55
		C210.65,653.88,211.38,653.49,212.11,653.09z"/>
	<path class="st4" d="M207.3,686.14c0.12,1.89,0.25,3.79,0.37,5.68C207.55,689.93,207.43,688.04,207.3,686.14z"/>
	<path class="st3" d="M209.88,641.1c-0.01,0.76-0.01,1.52-0.02,2.27C209.86,642.62,209.87,641.86,209.88,641.1z"/>
	<path class="st3" d="M207.19,624.55c0.11,0.76,0.22,1.52,0.33,2.28C207.41,626.07,207.3,625.31,207.19,624.55z"/>
	<path class="st4" d="M207.66,677.02c-0.12,1.14-0.24,2.28-0.36,3.42C207.42,679.29,207.54,678.15,207.66,677.02z"/>
	<path class="st3" d="M207.76,628.54c0.14,0.39,0.27,0.78,0.41,1.17c-0.25-0.09-0.5-0.17-0.95-0.33
		C207.43,629.04,207.6,628.79,207.76,628.54z"/>
	<path class="st3" d="M172.78,508.86c0.01,0.37,0.02,0.74,0.03,1.11C172.8,509.6,172.79,509.23,172.78,508.86z"/>
	<path class="st3" d="M173.4,503.72c0,0.37,0,0.75,0,1.12C173.4,504.47,173.4,504.09,173.4,503.72z"/>
	<path class="st3" d="M210.4,645.11c0,0.37-0.01,0.74-0.01,1.11C210.39,645.85,210.4,645.48,210.4,645.11z"/>
	<path class="st3" d="M405.45,576.1c0.14-0.21,0.27-0.42,0.41-0.64C405.72,575.68,405.58,575.89,405.45,576.1z"/>
	<path class="st3" d="M402.05,582.94c0.14-0.19,0.28-0.37,0.42-0.56C402.33,582.57,402.19,582.75,402.05,582.94z"/>
	<path class="st3" d="M469.25,369.51c0.01-0.22,0.12-0.35,0.33-0.39C469.52,369.29,469.41,369.42,469.25,369.51z"/>
	<path class="st3" d="M469.65,369c0.15-0.22,0.3-0.44,0.45-0.66C469.94,368.56,469.79,368.78,469.65,369z"/>
	<path class="st4" d="M208.06,504.24c0.74,5.27-0.09,16.53,8.03,15.15c-0.97-5.92-1.7-11.85-2.35-17.81
		c-0.47-4.33-2.38-11.35,0.02-15.39c5.41-9.09,20.16-6.89,27.59-3.12c-0.6,8.62-1.17,16.67-1.74,24.9c0.77,0.52,1.53,1.04,3.11,2.11
		c5.06-9-0.11-24.68,8.47-31.41c7.72-6.06,26.39-4.03,34.18,1.09c0,8.12-0.18,16.2-0.53,24.31c-0.3,7.12-1.13,11.75,2.84,17.73
		c0.52-0.11,1.03-0.22,1.55-0.33c1.33-6.05,1.96-10.88,1.77-17.15c-0.18-6.21,1.58-11.66,2.98-17.65c10.59,0,20.74-0.32,31.04,2.57
		c3.7,1.04,9.97,2.37,12.51,5.63c2.38,3.04,1.54,7.92,1.52,11.49c-0.08,10.56,0.17,20.19,3.81,30.22c1.36,3.76,8,29.85,14.53,22.04
		c-0.34-4.59-5.47-5.84-1.73-10.39c1.61-1.96,4.92-2.71,7.02-4.07c3.23-2.1,5.84-4.85,8.42-7.67c3.72-4.07,6.36-9.12,12.45-7.36
		c6.48,1.88,12.68,8.04,16.99,13c3.59,4.14,9.62,10.24,8.1,16.02c-1.9,7.23-8.81,14.91-12.42,21.48
		c-7.99,14.53-12.97,30.5-20.98,45.04c-7.62,13.84-21.72,23.33-33.61,33.35c-12.51,10.55-25.03,15.34-40.19,20.96
		c-16.46,6.09-34.12,8.37-51.6,5.51c-6.33-1.04-14.88-3.55-20.39-6.9c-6.89-4.19-7.67-13.44-9.29-20.55
		c-4.46-19.59-7.84-39.38-12-59.04c-1.98-9.35-4.23-18.46-7.78-27.35c-3.28-8.21-8.12-16.29-10.22-24.88
		c-4.08-6.13-11.65-18.55-7.99-25.92C186.28,511.55,199.74,506.3,208.06,504.24z"/>
	<path class="st5" d="M215.61,699.13c0-8.55,0-17.1,0-26.73c8.35,6.52,13.65,13.72,24.56,16.49c12.4,3.15,25.74,2.67,38.35,1.31
		c12.63-1.35,25.14-4.88,36.9-9.62c11.8-4.76,21.34-12.98,32.6-18.63c11.77,9.88,6.4,26.48,4.69,39.69
		c-1.66,12.87-1.14,26.97-14.21,33.36c-13.61,6.65-29.55,11.88-43.98,16.44c-7.19,2.27-15.12,2.84-22.58,3.64
		c-4.33,0.47-8.67,0.64-13.01,0.21c-3.05-0.3-6.1-1.52-9.09-0.88c-11.98-4.87-21.85-8.33-30.69-18.16
		c-8.26-9.18-3.81-25.42-3.15-36.85C215.87,699.31,215.74,699.22,215.61,699.13z"/>
	<path class="st2" d="M338.17,488.01c-14.15-6.37-28.08-10.63-43.25-7.04c-6.18-9.46-0.66-25.8-0.7-36.39
		c-0.04-13.02-0.34-26.06-0.86-39.07c-0.53-13.31-2.98-26.35-3.85-39.61c-0.55-8.31,3.03-22.63,14.2-20.46
		c11.06,2.14,16.4,14.93,19.77,24.4c4.58,12.89,4.75,26.59,5.89,40.07c1.11,13.06,3.9,25.66,5.85,38.58
		C337.2,461.58,336.05,475.11,338.17,488.01z"/>
	<path class="st2" d="M284.23,471.34c-11.98-4.16-23.79-2.37-35.74-0.18c-0.64-8.43-1.32-16.85-2.07-25.27
		c-0.2-2.24-0.48-4.08-0.79-5.68c-0.68-3.44-1.48-6.43-1.9-7.91c-0.31-1.08-0.54-1.82-0.59-1.99c-0.7-2.33-3.44-15.33,3.65-23.07
		c8.72-9.53,27.36-5.69,29.66-0.5c0.13,0.3,0.46,1.4,1.13,3.6c0.3,0.99,1.03,3.47,1.89,6.75c0.39,1.5,0.81,3.16,1.24,5
		c0.67,2.89,1.21,5.55,1.81,8.68C285.27,445.02,288.35,457.02,284.23,471.34z"/>
	<path class="st2" d="M413.13,548.15c-6.57-13.73-9.85-15.44-26.44-25.26c6.84-11.7,16.5-21.64,27.88-28.97
		c10.48-6.74,27-10.68,38.06-2.73c4,2.87,8.88,9.05,7.75,14.3c-1.24,5.78-9.1,11.13-13.15,14.96
		C437.15,530.01,425.91,542.58,413.13,548.15z"/>
	<path class="st2" d="M207.13,445.09c0,13.65-0.59,27.24-0.22,40.89c0.07,2.76,1,6.86-0.37,9.38c-1.48,2.72-5.88,4.35-8.43,5.89
		c-5.85,3.53-11.64,7.51-18,10.01C183.46,489.74,186.24,457.19,207.13,445.09z"/>
	<path class="st2" d="M237.85,432.95c1.25,13.77,2.42,26.62,3.56,39.14c-9.24,1.34-17.85,2.59-27.43,3.98c0.37-7,0.73-14,1.1-20.99
		c0.26-4.78-0.02-10.27,2.09-14.69C220.87,432.65,230.54,433.51,237.85,432.95z"/>
	<path class="st2" d="M235.04,387.47"/>
</g>
</svg>
