<svg width="15" height="13" viewBox="0 0 15 13" fill="none" xmlns="http://www.w3.org/2000/svg">
<path d="M10.0594 11.2044C10.3313 11.4319 10.7625 11.4319 11.0344 11.2044L13.6125 9.05125C13.6822 8.99646 13.7385 8.9301 13.7781 8.8561C13.8177 8.78211 13.8397 8.70198 13.8429 8.62048C13.846 8.53897 13.8303 8.45774 13.7966 8.3816C13.7629 8.30546 13.7119 8.23595 13.6466 8.17721C13.5813 8.11847 13.5031 8.07167 13.4166 8.03961C13.3301 8.00754 13.237 7.99085 13.1429 7.99053C13.0488 7.9902 12.9556 8.00626 12.8688 8.03773C12.782 8.0692 12.7033 8.11546 12.6375 8.17375L11.25 9.33238V2.23438C11.25 2.07276 11.176 1.91776 11.0441 1.80348C10.9122 1.6892 10.7334 1.625 10.5469 1.625C10.3604 1.625 10.1816 1.6892 10.0497 1.80348C9.91787 1.91776 9.84379 2.07276 9.84379 2.23438V9.33238L8.45629 8.17375C8.39048 8.11546 8.31184 8.0692 8.22503 8.03773C8.13822 8.00626 8.04501 7.9902 7.95091 7.99053C7.85681 7.99085 7.76374 8.00754 7.67722 8.03961C7.5907 8.07167 7.51249 8.11847 7.44721 8.17721C7.38194 8.23595 7.33094 8.30546 7.29723 8.3816C7.26352 8.45774 7.24779 8.53897 7.25096 8.62048C7.25414 8.70198 7.27617 8.78211 7.31573 8.8561C7.35529 8.9301 7.41159 8.99646 7.48129 9.05125L10.0594 11.2044ZM4.95004 1.80375C4.8182 1.68963 4.63949 1.62554 4.45316 1.62554C4.26684 1.62554 4.08812 1.68963 3.95629 1.80375L1.37816 4.03812C1.25396 4.15364 1.18635 4.30643 1.18956 4.4643C1.19278 4.62217 1.26657 4.77279 1.39539 4.88444C1.52422 4.99609 1.69802 5.06004 1.88017 5.06283C2.06233 5.06562 2.23863 5.00702 2.37191 4.89938L3.75004 3.705V10.7656C3.75004 10.9272 3.82412 11.0822 3.95598 11.1965C4.08784 11.3108 4.26668 11.375 4.45316 11.375C4.63964 11.375 4.81849 11.3108 4.95035 11.1965C5.08221 11.0822 5.15629 10.9272 5.15629 10.7656V3.705L6.53441 4.89938C6.6677 5.00702 6.844 5.06562 7.02615 5.06283C7.20831 5.06004 7.38211 4.99609 7.51093 4.88444C7.63976 4.77279 7.71355 4.62217 7.71677 4.4643C7.71998 4.30643 7.65236 4.15364 7.52816 4.03812L4.95004 1.80375Z" fill="black"/>
</svg>
