<svg width="31" height="31" viewBox="0 0 31 31" fill="none" xmlns="http://www.w3.org/2000/svg">
<path d="M15.5 3.875C16.8703 3.875 18.1844 4.41934 19.1534 5.38828C20.1223 6.35722 20.6666 7.67138 20.6666 9.04167C20.6666 9.98458 20.4212 10.8629 19.9691 11.625H23.25C24.4771 11.625 25.5104 12.4904 25.7687 13.64C28.365 23.9862 28.4166 24.2575 28.4166 24.5417C28.4166 25.2268 28.1445 25.8839 27.66 26.3684C27.1755 26.8528 26.5185 27.125 25.8333 27.125H5.16665C4.4815 27.125 3.82442 26.8528 3.33995 26.3684C2.85548 25.8839 2.58331 25.2268 2.58331 24.5417C2.58331 24.2575 2.63498 23.9862 5.23123 13.64C5.48956 12.4904 6.5229 11.625 7.74998 11.625H11.0308C10.5691 10.8428 10.328 9.94999 10.3333 9.04167C10.3333 7.67138 10.8777 6.35722 11.8466 5.38828C12.8155 4.41934 14.1297 3.875 15.5 3.875ZM15.5 6.45833C14.8148 6.45833 14.1578 6.7305 13.6733 7.21497C13.1888 7.69944 12.9166 8.35652 12.9166 9.04167C12.9166 9.72681 13.1888 10.3839 13.6733 10.8684C14.1578 11.3528 14.8148 11.625 15.5 11.625C16.1851 11.625 16.8422 11.3528 17.3267 10.8684C17.8111 10.3839 18.0833 9.72681 18.0833 9.04167C18.0833 8.35652 17.8111 7.69944 17.3267 7.21497C16.8422 6.7305 16.1851 6.45833 15.5 6.45833Z" fill="black"/>
</svg>
