<?xml version="1.0" encoding="utf-8"?>
<!-- Generator: Adobe Illustrator 27.6.1, SVG Export Plug-In . SVG Version: 6.00 Build 0)  -->
<svg version="1.1" id="Calque_1" xmlns="http://www.w3.org/2000/svg" xmlns:xlink="http://www.w3.org/1999/xlink" x="0px" y="0px"
	 viewBox="0 0 900 900" style="enable-background:new 0 0 900 900;" xml:space="preserve">
<style type="text/css">
	.st0{fill:#FFFFFF;}
	.st1{fill:#E30613;}
</style>
<circle class="st0" cx="1549.81" cy="434.41" r="243.98"/>
<circle cx="1549.81" cy="435.36" r="227.27"/>
<path class="st1" d="M1549.81,238.36c-108.73,0-196.87,88.14-196.87,196.87c0,1.11,0.02,2.22,0.04,3.33
	c25.66-0.04,51.33-0.14,76.99-0.27c12.87-0.07,25.73-0.13,38.6-0.2c-1.83-15.74,6.15-33.42,17.44-43.16
	c5.96-5.14,12.6-8.58,19.62-10.84c0.82-0.5,1.66-0.98,2.51-1.44c0.26-0.14,0.52-0.25,0.78-0.34c6.96-6.2,14.84-11.37,23.51-14.66
	c13.25-5.03,29.51-4.24,42.56,1.07c13.1,5.33,22.94,15.47,31.46,26.45c5.29,6.82,10,13.69,12.89,21.9
	c2.39,6.78,3.48,13.95,3.68,21.13c19.86,0.19,39.72,0.48,59.57,0.91c21.37,0.46,42.69,0.73,63.97,2.32c0.06-2.06,0.11-4.12,0.11-6.2
	C1746.68,326.5,1658.54,238.36,1549.81,238.36z"/>
<path class="st0" d="M1549.81,633.57c108.73,0,196.87-88.14,196.87-196.87c0-1.11-0.02-2.22-0.04-3.33
	c-25.66,0.04-51.33,0.14-76.99,0.27c-12.87,0.07-25.73,0.13-38.6,0.2c1.83,15.74-6.15,33.42-17.44,43.16
	c-5.96,5.14-12.6,8.58-19.62,10.84c-0.82,0.5-1.66,0.98-2.51,1.44c-0.26,0.14-0.52,0.25-0.78,0.34
	c-6.96,6.2-14.84,11.37-23.51,14.66c-13.25,5.03-29.51,4.24-42.56-1.07c-13.1-5.33-22.94-15.47-31.46-26.45
	c-5.29-6.82-10-13.69-12.89-21.9c-2.39-6.78-3.48-13.95-3.68-21.13c-19.86-0.19-39.72-0.48-59.57-0.91
	c-21.37-0.46-42.69-0.73-63.97-2.32c-0.06,2.06-0.11,4.12-0.11,6.2C1352.94,545.43,1441.08,633.57,1549.81,633.57z"/>
<circle cx="1549.81" cy="433.78" r="84.26"/>
<circle class="st0" cx="1549.81" cy="433.71" r="56.56"/>
<circle cx="1551.05" cy="433.2" r="28.28"/>
<rect x="1341" y="418.99" width="131.57" height="29.6"/>
<rect x="1624.92" y="418.91" width="131.57" height="29.6"/>
<circle class="st0" cx="450" cy="448.51" r="398.25"/>
<circle cx="450" cy="450.07" r="370.98"/>
<path class="st1" d="M450,128.5c-177.48,0-321.35,143.87-321.35,321.35c0,1.82,0.04,3.63,0.07,5.44
	c41.89-0.07,83.78-0.23,125.68-0.44c21-0.11,42-0.22,63-0.32c-2.98-25.7,10.03-54.56,28.46-70.45c9.73-8.39,20.56-14.01,32.02-17.69
	c1.35-0.81,2.71-1.6,4.1-2.36c0.42-0.23,0.85-0.41,1.28-0.55c11.36-10.12,24.22-18.56,38.37-23.93c21.63-8.21,48.17-6.92,69.48,1.74
	c21.38,8.69,37.45,25.25,51.36,43.17c8.64,11.13,16.32,22.34,21.04,35.75c3.9,11.07,5.67,22.77,6,34.48
	c32.42,0.32,64.83,0.79,97.24,1.48c34.88,0.75,69.68,1.19,104.42,3.79c0.1-3.36,0.17-6.73,0.17-10.11
	C771.35,272.37,627.48,128.5,450,128.5z"/>
<path class="st0" d="M450,773.61c177.48,0,321.35-143.87,321.35-321.35c0-1.82-0.04-3.63-0.07-5.44
	c-41.89,0.07-83.78,0.23-125.68,0.44c-21,0.11-42,0.22-63,0.32c2.98,25.7-10.03,54.56-28.46,70.45
	c-9.73,8.39-20.56,14.01-32.02,17.69c-1.35,0.81-2.71,1.6-4.1,2.36c-0.42,0.23-0.85,0.41-1.28,0.55
	c-11.36,10.12-24.22,18.56-38.37,23.93c-21.63,8.21-48.17,6.92-69.48-1.74c-21.38-8.69-37.45-25.25-51.36-43.17
	c-8.64-11.13-16.32-22.34-21.04-35.75c-3.9-11.07-5.67-22.77-6-34.48c-32.42-0.32-64.83-0.79-97.24-1.48
	c-34.88-0.75-69.68-1.19-104.42-3.79c-0.1,3.36-0.17,6.73-0.17,10.11C128.65,629.74,272.52,773.61,450,773.61z"/>
<circle cx="450" cy="447.49" r="137.54"/>
<circle class="st0" cx="450" cy="447.37" r="92.33"/>
<circle cx="452.02" cy="446.54" r="46.16"/>
<rect x="109.16" y="423.35" width="214.77" height="48.32"/>
<rect x="572.61" y="423.21" width="214.77" height="48.32"/>
</svg>
