<svg width="498" height="498" viewBox="0 0 498 498" fill="none" xmlns="http://www.w3.org/2000/svg">
<g clip-path="url(#clip0_342_183)">
<path d="M249 468.541C370.704 468.541 469.365 369.88 469.365 248.176C469.365 126.471 370.704 27.8105 249 27.8105C127.296 27.8105 28.635 126.471 28.635 248.176C28.635 369.88 127.296 468.541 249 468.541Z" fill="white"/>
<path d="M249 454.314C362.371 454.314 454.276 362.409 454.276 249.039C454.276 135.668 362.371 43.7632 249 43.7632C135.629 43.7632 43.7244 135.668 43.7244 249.039C43.7244 362.409 135.629 454.314 249 454.314Z" fill="black"/>
<path d="M249 71.1033C150.794 71.1033 71.1863 150.711 71.1863 248.917C71.1863 249.924 71.2085 250.926 71.2251 251.927C94.4042 251.888 117.583 251.8 140.768 251.684C152.388 251.623 164.008 251.562 175.628 251.507C173.979 237.286 181.178 221.317 191.376 212.524C196.76 207.882 202.752 204.772 209.094 202.736C209.841 202.288 210.593 201.85 211.362 201.43C211.595 201.303 211.833 201.203 212.071 201.126C218.356 195.526 225.472 190.856 233.302 187.884C245.271 183.341 259.956 184.055 271.748 188.847C283.578 193.656 292.47 202.819 300.167 212.734C304.948 218.893 309.197 225.096 311.809 232.516C313.967 238.642 314.946 245.116 315.129 251.595C333.068 251.772 351.001 252.032 368.935 252.414C388.235 252.829 407.491 253.072 426.714 254.511C426.769 252.652 426.808 250.787 426.808 248.917C426.814 150.711 347.206 71.1033 249 71.1033Z" fill="#FFE604"/>
<path d="M249 428.064C347.206 428.064 426.814 348.456 426.814 250.25C426.814 249.243 426.792 248.242 426.775 247.24C403.596 247.279 380.417 247.368 357.232 247.484C345.612 247.545 333.992 247.606 322.372 247.661C324.021 261.882 316.822 277.851 306.624 286.643C301.24 291.286 295.248 294.395 288.906 296.432C288.159 296.88 287.407 297.317 286.638 297.738C286.405 297.865 286.167 297.964 285.929 298.042C279.644 303.642 272.528 308.312 264.698 311.283C252.729 315.826 238.044 315.112 226.252 310.32C214.422 305.512 205.53 296.349 197.833 286.433C193.052 280.274 188.803 274.071 186.191 266.651C184.033 260.526 183.054 254.052 182.871 247.572C164.932 247.395 146.999 247.135 129.065 246.753C109.765 246.338 90.5087 246.095 71.2859 244.656C71.2306 246.515 71.1919 248.38 71.1919 250.25C71.1863 348.456 150.794 428.064 249 428.064Z" fill="white"/>
<path d="M249 323.717C291.032 323.717 325.105 289.643 325.105 247.611C325.105 205.579 291.032 171.506 249 171.506C206.968 171.506 172.895 205.579 172.895 247.611C172.895 289.643 206.968 323.717 249 323.717Z" fill="black"/>
<path d="M249 298.634C277.216 298.634 300.089 275.761 300.089 247.545C300.089 219.329 277.216 196.456 249 196.456C220.784 196.456 197.911 219.329 197.911 247.545C197.911 275.761 220.784 298.634 249 298.634Z" fill="white"/>
<path d="M250.118 272.627C264.224 272.627 275.66 261.192 275.66 247.086C275.66 232.979 264.224 221.544 250.118 221.544C236.011 221.544 224.576 232.979 224.576 247.086C224.576 261.192 236.011 272.627 250.118 272.627Z" fill="black"/>
<path d="M179.241 234.254H60.4019V260.991H179.241V234.254Z" fill="black"/>
<path d="M435.684 234.176H316.844V260.913H435.684V234.176Z" fill="black"/>
</g>
<defs>
<clipPath id="clip0_342_183">
<rect width="498" height="498" fill="white"/>
</clipPath>
</defs>
</svg>
